HIERARCHY
ROOT hip
{
	OFFSET 0.000000 0.000000 0.000000 
	CHANNELS 6 Xposition Yposition Zposition Xrotation Zrotation Yrotation
	JOINT abdomen
	{
		OFFSET 0.000000 3.402643 0.000000 
		CHANNELS 3 Xrotation Zrotation Yrotation
		JOINT chest
		{
			OFFSET 0.000000 8.438565 -0.680529 
			CHANNELS 3 Xrotation Zrotation Yrotation
			JOINT neck
			{
				OFFSET 0.000000 10.207942 -0.272212 
				CHANNELS 3 Xrotation Zrotation Yrotation
				JOINT head
				{
					OFFSET 0.000000 3.130431 0.000000 
					CHANNELS 3 Xrotation Zrotation Yrotation
					End Site
					{
						OFFSET 0.000000 3.130435 0.000000 
					}
				}
			}
			JOINT lCollar
			{
				OFFSET 3.470700 6.669187 -0.816635 
				CHANNELS 3 Yrotation Zrotation Xrotation
				JOINT lShldr
				{
					OFFSET 3.198488 0.000000 0.000000 
					CHANNELS 3 Zrotation Yrotation Xrotation
					JOINT lForeArm
					{
						OFFSET 10.139888 0.000000 0.000000 
						CHANNELS 3 Yrotation Zrotation Xrotation
						JOINT lHand
						{
							OFFSET 8.370511 0.000000 0.000000 
							CHANNELS 3 Zrotation Yrotation Xrotation
							End Site
							{
								OFFSET 4.083176 0.000000 0.000000 
							}
						}
					}
				}
			}
			JOINT rCollar
			{
				OFFSET -3.470700 6.669187 -0.816635 
				CHANNELS 3 Yrotation Zrotation Xrotation
				JOINT rShldr
				{
					OFFSET -3.198488 0.000000 0.000000 
					CHANNELS 3 Zrotation Yrotation Xrotation
					JOINT rForeArm
					{
						OFFSET -10.139888 0.000000 0.000000 
						CHANNELS 3 Yrotation Zrotation Xrotation
						JOINT rHand
						{
							OFFSET -8.370511 0.000000 0.000000 
							CHANNELS 3 Zrotation Yrotation Xrotation
							End Site
							{
								OFFSET -4.083176 0.000000 0.000000 
							}
						}
					}
				}
			}
		}
	}
	JOINT lThigh
	{
		OFFSET 5.308129 -1.633274 1.361059 
		CHANNELS 3 Xrotation Zrotation Yrotation
		JOINT lShin
		{
			OFFSET -2.041588 -20.007561 0.000000 
			CHANNELS 3 Xrotation Zrotation Yrotation
			JOINT lFoot
			{
				OFFSET 0.000000 -19.190928 -1.224953 
				CHANNELS 3 Xrotation Yrotation Zrotation
				End Site
				{
					OFFSET 0.000000 -2.449906 4.627600 
				}
			}
		}
	}
	JOINT rThigh
	{
		OFFSET -5.308129 -1.633274 1.361059 
		CHANNELS 3 Xrotation Zrotation Yrotation
		JOINT rShin
		{
			OFFSET 2.041588 -20.007561 0.000000 
			CHANNELS 3 Xrotation Zrotation Yrotation
			JOINT rFoot
			{
				OFFSET 0.000000 -19.190928 -1.224953 
				CHANNELS 3 Xrotation Yrotation Zrotation
				End Site
				{
					OFFSET 0.000000 -2.449906 4.627600 
				}
			}
		}
	}
}
MOTION
Frames: 19
Frame Time: 0.016667
33.535042 43.771362 -164.714569 15.290836 13.319841 117.446983 45.339394 -2.264600 0.477619 -20.839844 0.000000 0.000000 -14.467205 5.590440 33.073158 8.603792 -1.684224 0.126603 -4.754609 -0.109183 -0.002653 -86.427612 35.159260 11.809077 -9.783952 -16.248837 62.983250 -176.620560 179.414093 -168.835724 4.754609 0.109183 -0.002672 28.571644 -7.684140 8.345189 136.812103 36.050835 -16.916208 131.354401 173.462265 186.135590 -23.436007 25.572811 18.122404 60.604362 -14.338243 4.238027 -3.680056 2.078938 5.611088 -38.561008 -25.623125 3.740396 90.462631 -13.749339 -4.277960 5.532640 -11.131016 -4.159939 
36.995663 44.201958 -169.360748 16.948978 14.230506 113.921471 44.437050 -2.812345 -0.237087 -20.839844 0.000000 0.000000 -13.230705 5.055993 36.963444 8.603792 -1.684224 0.126603 -4.754609 -0.109183 -0.002653 -86.285362 35.088768 10.077817 -11.260457 -15.191802 60.917133 -179.719604 178.688019 -170.598160 4.754609 0.109183 -0.002672 25.756699 -20.557058 10.729229 130.889496 42.649261 -19.535126 132.273041 170.590149 194.103836 -19.724228 21.986740 19.358440 70.565285 -17.231575 2.687236 -5.686771 2.666329 2.623838 -43.241047 -27.177200 2.571962 88.025169 -11.025333 -4.420084 1.040344 -12.276824 -2.651155 
40.171776 44.556450 -173.471619 18.192314 14.836429 110.818085 43.645477 -3.386402 -0.801315 -20.839844 0.000000 0.000000 -12.318943 4.592116 40.379711 8.603792 -1.684224 0.126603 -4.754609 -0.109183 -0.002653 -82.943649 32.689640 9.709130 -12.726637 -14.214106 56.277275 -179.803574 176.710571 -168.916351 4.754609 0.109183 -0.002672 30.906673 -28.798513 9.529099 110.584099 46.711075 -11.099846 142.780090 172.324692 199.720871 -17.878378 20.393984 20.134081 78.539192 -18.872416 -0.858948 1.558609 0.782847 -0.702376 -45.357048 -27.985804 -0.075921 84.831779 -6.494116 -4.636170 -3.280828 -13.354493 -2.076538 
43.118534 44.738289 -177.161072 18.889347 15.120826 107.514687 42.822624 -4.201915 -1.394570 -20.839844 0.000000 0.000000 -11.703373 4.459160 43.837139 8.603792 -1.684224 0.126603 -4.754609 -0.109183 -0.002653 -78.666786 28.710140 11.536881 -12.669236 -12.860351 51.965389 -178.709244 174.869263 -163.696075 4.754609 0.109183 -0.002672 39.600636 -29.185907 7.275817 89.611404 45.467228 1.624206 156.344681 176.144363 199.330795 -17.233513 22.237320 20.952400 82.178818 -18.562712 -3.189866 8.838919 -1.008784 -0.356733 -45.085251 -27.488600 -2.138571 81.076515 -3.223288 -6.675508 -7.195082 -16.487421 -3.320486 
45.888569 44.752075 -180.696762 18.922783 15.051829 103.245453 41.864594 -5.257491 -1.786740 -20.839844 0.000000 0.000000 -11.385253 4.562736 47.632694 8.603792 -1.684224 0.126603 -4.754609 -0.109183 -0.002653 -76.592102 24.188194 14.860796 -10.857250 -6.484013 47.824696 -178.942520 173.185791 -154.298584 4.754609 0.109183 -0.002672 47.078678 -23.467623 7.170315 76.757301 42.900745 12.986312 169.397141 176.407120 192.559708 -16.504072 26.562740 21.529860 76.812912 -16.527920 -1.269625 9.526747 0.010524 1.926647 -44.940422 -24.999584 -0.933253 78.521927 -4.346091 -10.454074 -14.695930 -21.926702 -6.461159 
48.473690 44.590668 -184.304504 18.198456 14.516932 97.568604 40.676125 -6.129984 -1.534655 -20.839844 0.000000 0.000000 -11.285887 4.731089 51.682819 8.603792 -1.684224 0.126603 -4.754609 -0.109183 -0.002653 -77.815071 18.760334 18.589716 -6.698587 2.309411 42.012054 178.506256 170.580170 -142.408997 4.754609 0.109183 -0.002672 53.152760 -12.110765 9.785174 70.009285 41.266914 23.888565 -179.221909 172.228134 180.405624 -13.271770 31.284029 22.981728 60.875343 -13.883651 2.611611 5.665290 0.598785 5.257541 -46.912319 -23.163464 2.639556 78.523674 -8.691525 -11.774951 -19.509079 -24.678152 -5.770647 
50.911190 44.213196 -188.085907 16.820456 13.327662 90.876556 39.244255 -6.314498 -0.574476 -20.839844 0.000000 0.000000 -11.184757 4.887651 55.533127 8.603792 -1.684224 0.126603 -4.754609 -0.109183 -0.002653 -80.005440 12.763699 20.740740 -3.923282 6.291496 32.347759 173.596176 167.569046 -130.146896 4.754609 0.109183 -0.002672 60.109203 4.598577 15.523026 65.563004 40.357525 33.565304 -172.672913 167.235107 168.698349 -5.782188 34.343994 26.557131 37.545162 -11.280007 6.685250 1.818386 -0.609690 7.545250 -51.841743 -25.174490 5.298169 78.858246 -11.601370 -8.498069 -18.381855 -21.043749 -1.558179 
53.267479 43.562958 -191.988861 14.992819 11.350555 84.516640 37.754620 -5.260009 0.729016 -20.839844 0.000000 0.000000 -10.907058 5.206750 58.582771 8.603792 -1.684224 0.126603 -4.754609 -0.109183 -0.002653 -78.684776 8.140681 19.382584 -7.581948 10.163683 19.239603 168.125748 166.221970 -118.167244 4.754609 0.109183 -0.002672 69.191452 23.243460 25.108267 64.075371 40.854118 38.199928 -173.888947 166.403885 164.148209 3.075223 34.305359 30.204790 13.557618 -6.076757 11.706028 1.186309 -0.885557 6.260337 -58.992664 -29.980000 6.358867 77.912071 -11.249218 -3.434619 -15.800195 -13.926629 0.307106 
55.556850 42.624626 -195.951599 12.995457 8.728329 80.210083 36.553337 -3.068493 1.692184 -20.839844 0.000000 0.000000 -10.550441 5.969645 60.270210 8.603792 -1.684224 0.126603 -4.754609 -0.109183 -0.002653 -71.847237 6.462001 -6.749141 -19.344900 10.530274 -0.757782 166.134918 159.245514 -142.863770 4.754609 0.109183 -0.002672 78.799141 39.525257 36.564419 70.033020 42.808891 33.805946 178.550934 170.698273 167.072754 11.587829 32.868385 34.742981 -6.629594 -2.897025 16.077543 9.054731 -0.647035 4.324030 -65.460045 -35.211315 7.083180 75.581589 -9.559982 0.626041 -11.537580 -8.358228 2.720061 
57.745090 41.477386 -199.762115 11.445937 6.106264 79.288696 35.946938 -1.536871 1.307952 -20.839844 0.000000 0.000000 -10.425034 7.355003 60.276249 8.603792 -1.684224 0.126603 -4.754609 -0.109183 -0.002653 -61.008430 4.168660 -23.743111 -32.906063 5.198579 -8.123096 166.456512 156.850281 -165.495956 4.754609 0.109183 -0.002672 83.649315 51.322887 43.700966 85.402275 43.066536 21.096228 168.794525 176.097672 171.991379 10.413154 35.551975 38.532600 -6.966055 -4.311426 16.164301 19.314432 -4.796637 -3.012052 -70.028847 -39.902203 8.694516 73.423492 -9.257092 2.379509 -9.133044 -6.660219 6.945282 
59.760166 40.322998 -203.038849 9.851531 3.635036 82.151245 35.987572 -0.534062 0.078074 -20.839844 0.000000 0.000000 -10.887348 9.341118 58.356419 8.603792 -1.684224 0.126603 -4.754609 -0.109183 -0.002653 -46.319565 -2.884935 -19.281569 -43.622887 1.157186 1.240233 172.683640 166.126617 -166.825165 4.754609 0.109183 -0.002672 75.162819 54.818298 36.536850 103.664436 39.362114 8.123927 160.731415 179.048325 174.677170 -2.455864 44.662373 37.138603 13.337800 -8.406324 8.743026 22.989946 -10.757425 -11.231499 -70.540199 -43.649456 10.319341 72.329597 -10.848436 2.347704 -8.470431 -8.027914 11.849749 
61.421261 39.508278 -205.337936 7.836471 1.401871 88.558006 36.646084 0.269783 -1.157792 -20.839844 0.000000 0.000000 -12.199738 11.780627 54.067921 8.603792 -1.684224 0.126603 -4.754609 -0.109183 -0.002653 -32.518467 -16.932047 -21.672186 -43.308434 0.550253 7.912281 -175.495941 174.622238 -174.148590 4.754609 0.109183 -0.002672 63.239998 43.231590 23.678942 115.470619 35.666214 1.492125 155.860641 177.051086 175.774567 -19.347374 51.499348 29.372000 30.983067 -10.107694 0.540408 19.801167 -12.060858 -11.593459 -64.168091 -46.327137 9.386069 72.472794 -12.859694 1.587230 -7.094092 -10.000508 16.133776 
62.702839 39.177292 -206.525513 5.871665 -0.198762 97.672623 37.947765 -0.244930 -2.321499 -20.839844 0.000000 0.000000 -14.585406 14.497170 46.887558 8.603792 -1.684224 0.126603 -4.754609 -0.109183 -0.002653 -23.739122 -32.025696 -28.449320 -34.336113 2.001079 8.165222 -168.420914 179.407257 -178.212997 4.754609 0.109183 -0.002672 61.957371 24.791222 18.214815 114.086555 36.391735 0.917405 155.088257 171.263199 179.336136 -36.453312 51.936676 18.893787 40.816406 -9.112774 -4.516651 16.728594 -12.773412 -8.076719 -52.094303 -47.095951 5.289024 75.248871 -14.393306 -0.862106 -9.009844 -13.412218 16.534988 
63.856205 39.182396 -206.935684 4.467225 -1.378379 108.572952 39.805931 -2.170729 -3.022118 -20.839844 0.000000 0.000000 -18.292250 17.129637 36.565903 8.603792 -1.684224 0.126603 -4.754609 -0.109183 -0.002653 -23.291693 -43.730244 -24.053469 -24.033670 6.220202 10.147394 -166.893112 179.873352 -171.159744 4.754609 0.109183 -0.002672 68.106880 14.620445 17.921120 106.480057 37.757267 0.968456 158.197418 168.839569 185.169159 -48.646023 47.501205 11.118521 44.381702 -8.020441 -7.316090 16.678015 -14.003969 -4.326572 -37.751923 -45.446991 -0.491916 78.845482 -14.433274 -5.232805 -12.850903 -18.497433 11.451511 
65.040726 39.344322 -206.923431 4.180530 -2.750722 119.475594 41.953606 -5.213501 -2.971127 -20.839844 0.000000 0.000000 -23.396122 18.886005 23.516922 8.603792 -1.684224 0.126603 -4.754609 -0.109183 -0.002653 -32.639374 -49.297569 -15.883641 -21.100731 9.222187 13.048506 -169.680405 180.537048 -171.633606 4.754609 0.109183 -0.002672 71.913521 16.362768 19.856901 106.670265 37.514347 0.240796 161.030777 169.024857 185.689255 -56.187607 40.436085 6.506084 44.780548 -7.063285 -8.955649 17.555559 -14.817933 -2.099585 -24.509691 -42.349514 -5.951742 80.387482 -12.831769 -8.501650 -12.860909 -21.997818 7.012356 
66.299225 39.475594 -206.726776 2.871381 -4.709531 130.708115 43.940075 -8.607725 -1.919245 -20.839844 0.000000 0.000000 -29.265053 18.641836 9.060060 8.603792 -1.684224 0.126603 -4.754609 -0.109183 -0.002653 -44.516132 -48.388260 -14.894723 -26.033951 5.966264 11.415939 -172.567978 183.049835 -182.413788 4.754609 0.109183 -0.002672 69.048386 26.140028 20.900059 113.301476 34.945305 1.443938 160.878448 168.239319 178.824554 -61.051304 32.732243 4.152744 43.733990 -6.535854 -10.184736 18.617481 -15.942493 -0.676159 -13.856576 -38.412380 -10.020024 79.916199 -10.205146 -10.634467 -10.576636 -24.685970 6.209362 
67.644852 39.437798 -206.532669 2.015099 -7.218264 140.875916 45.291523 -11.544805 0.256984 -20.839844 0.000000 0.000000 -34.526939 15.792939 -4.690720 8.603792 -1.684224 0.126603 -4.754609 -0.109183 -0.002653 -54.867897 -44.466606 -10.916417 -31.139772 3.085515 9.648765 -170.632767 183.099594 -182.464401 4.754609 0.109183 -0.002672 60.503536 36.999008 17.845079 117.386635 31.557512 2.812538 159.681503 169.739624 174.682098 -64.932243 25.806156 3.224204 42.807453 -6.594328 -11.353882 19.621302 -17.754921 0.713596 -5.489062 -33.953255 -12.734328 78.001762 -6.920503 -12.945929 -9.062275 -28.059467 8.060087 
68.998146 39.271790 -206.502029 0.883537 -9.768449 149.251724 45.874981 -13.499228 3.441553 -20.839844 0.000000 0.000000 -38.000984 10.917024 -15.680045 8.603792 -1.684224 0.126603 -4.754609 -0.109183 -0.002653 -65.682121 -38.248924 -4.933290 -34.160706 2.791827 9.486105 -169.179901 182.344543 -179.575180 4.754609 0.109183 -0.002672 52.296021 44.290997 14.063188 116.856697 30.828274 1.968282 160.650543 172.828506 176.004623 -68.291313 20.547226 3.187399 42.660347 -7.093719 -12.361495 20.580935 -19.754585 1.592650 1.434004 -29.616459 -14.551518 74.694603 -3.452754 -14.561528 -9.872403 -30.527531 12.588634 
70.212761 39.168091 -206.725754 -0.364834 -11.849059 154.900375 45.946690 -14.387143 7.115242 -20.839844 0.000000 0.000000 -39.622398 5.491165 -22.970026 8.603792 -1.684224 0.126603 -4.754609 -0.109183 -0.002653 -75.275688 -29.305332 -3.079035 -33.704594 3.006649 9.498392 -170.940247 182.356384 -181.013596 4.754609 0.109183 -0.002672 51.532417 51.061241 15.892267 114.041603 32.896900 2.150029 162.621948 173.284012 176.713974 -70.799088 17.392309 3.541258 43.258797 -7.684959 -12.918263 21.004065 -21.276382 1.640298 7.017965 -25.901857 -15.459155 69.888580 -0.561470 -15.067466 -12.838834 -31.389736 16.785313 
